<svg xmlns="http://www.w3.org/2000/svg" version="1.1" id="Layer_1" x="0px" y="0px" width="179.6px" height="65.1px" viewBox="0 0 179.6 65.1" xml:space="preserve" enable-background="new 0 0 179.6 65.1"><style type="text/css"> .st0{fill:#38915E;} </style><path class="st0" d="M150.6 21.8l-0.1-1.1c-0.3-2.3 0.5-5 2.7-7.6 2-2.3 3.1-4 3.1-6 0-2.2-1.4-3.7-4.2-3.8 -1.6 0-3.3 0.5-4.4 1.4l-1.1-2.8c1.5-1.1 4-1.8 6.3-1.8 5.1 0 7.4 3.1 7.4 6.5 0 3-1.7 5.1-3.8 7.7 -1.9 2.3-2.6 4.3-2.5 6.5l0.1 1.1H150.6zM149.7 28c0-1.6 1.1-2.8 2.6-2.8 1.6 0 2.6 1.1 2.6 2.8 0 1.5-1 2.7-2.6 2.7C150.7 30.7 149.7 29.5 149.7 28"/><path class="st0" d="M145.9 27.6l-1.1-0.3c-2.3-0.5-4.6-2-6.4-4.9 -1.6-2.6-2.9-4.2-4.8-4.8 -2.1-0.7-4 0.2-4.9 2.8 -0.5 1.5-0.5 3.3-0.1 4.7l-3 0.1c-0.5-1.7-0.5-4.3 0.3-6.5 1.6-4.8 5.2-6 8.4-5 2.8 0.9 4.4 3.2 6.1 6 1.6 2.6 3.2 3.8 5.4 4.4l1.1 0.3L145.9 27.6zM151.5 30.4c-1.6-0.5-2.3-1.9-1.8-3.3 0.5-1.5 1.9-2.1 3.4-1.6 1.5 0.5 2.3 1.8 1.8 3.4C154.4 30.3 153 30.9 151.5 30.4"/><path class="st0" d="M150.1 34l-0.7 0.8c-1.4 1.7-2 3.8-1.8 6.7 0.2 3.3 0.3 6-1.4 8.4 -2 2.7-5.7 3.9-9.8 0.9 -1.9-1.4-3.5-3.4-4.1-5.1l2.5-1.6c0.4 1.3 1.5 2.8 2.8 3.7 2.3 1.6 4.3 1.2 5.6-0.6 1.2-1.6 1.3-3.6 1.1-6.7 -0.2-3.4 0.7-6 2.3-7.8l0.7-0.9L150.1 34zM153.8 25.6c1.3 1 1.4 2.5 0.5 3.8 -1 1.3-2.5 1.7-3.7 0.7 -1.2-0.9-1.4-2.5-0.5-3.8C151.1 25.1 152.6 24.8 153.8 25.6"/><path class="st0" d="M150.6 25.7c1.3-1 2.8-0.6 3.7 0.6 1 1.3 0.8 2.8-0.5 3.8 -1.2 0.9-2.8 0.6-3.7-0.7C149.2 28.2 149.4 26.6 150.6 25.7M157.3 31.8l0.6 0.9c1.2 1.9 2.9 3.1 5.9 3.8 3.2 0.8 5.8 1.5 7.6 4 2 2.7 2 6.6-2.1 9.6 -1.9 1.4-4.3 2.3-6.1 2.3l-0.8-2.9c1.4 0 3.1-0.6 4.4-1.5 2.2-1.7 2.5-3.7 1.2-5.5 -1.2-1.6-3.1-2.3-6-3.1 -3.3-0.8-5.5-2.5-6.7-4.6l-0.6-1L157.3 31.8z"/><path class="st0" d="M151.5 25.5c1.6-0.5 3 0.2 3.4 1.6 0.5 1.5-0.3 2.8-1.8 3.3 -1.5 0.5-2.9-0.1-3.4-1.7C149.2 27.3 150 26 151.5 25.5M157.7 24.4l1.1-0.4c2.1-1 4.9-1 8.1 0.2 2.8 1.2 4.8 1.7 6.7 1.1 2.1-0.7 3.1-2.5 2.3-5.2 -0.5-1.5-1.5-3-2.7-3.8l2.3-1.9c1.5 1.1 2.9 3.2 3.6 5.4 1.6 4.8-0.7 7.9-3.9 9 -2.8 0.9-5.4 0-8.5-1.2 -2.8-1.1-4.9-1.2-7-0.4l-1 0.4L157.7 24.4z"/><path class="st0" d="M13 39.2c6 0 9 3.5 9 3.5l-1.7 2.5c0 0-2.8-3-7.2-3 -5.4 0-9.6 4-9.6 9.9 0 5.8 4.3 9.9 9.7 9.9 5 0 7.9-3.5 7.9-3.5l1.5 2.6c0 0-3.3 3.9-9.6 3.9 -7.3 0-13-5.3-13-12.9C0 44.5 5.7 39.2 13 39.2"/><path class="st0" d="M28.4 30h3.3v27.9c0 3.2 1.5 3.7 2.7 3.7 0.4 0 0.8-0.1 0.8-0.1v3c0 0-0.6 0.1-1.2 0.1 -2.1 0-5.7-0.6-5.7-6V30z"/><path class="st0" d="M51.3 39.2c6.8 0 10.3 5.3 10.3 11.4 0 0.6-0.1 1.7-0.1 1.7H42.5c0.1 6.3 4.5 9.8 9.6 9.8 4.5 0 7.5-3 7.5-3l1.5 2.6c0 0-3.6 3.4-9.1 3.4 -7.4 0-12.9-5.3-12.9-12.9C39.1 44.1 44.6 39.2 51.3 39.2M58.2 49.6c-0.2-5.2-3.3-7.6-7-7.6 -4.1 0-7.7 2.6-8.5 7.6H58.2z"/><path class="st0" d="M64.6 39.8h3.5L75 57.9c0.4 1.2 0.8 2.9 0.8 2.9h0.1c0 0 0.4-1.7 0.9-2.9l6.8-18.1h3.5l-9.4 24.7h-3.6L64.6 39.8z"/><path class="st0" d="M91.7 30h3.5v4.2h-3.5V30zM91.8 39.8h3.3v24.7h-3.3V39.8z"/><path class="st0" d="M103 59.1c0 0 2.7 3 7.4 3 2.6 0 5-1.3 5-3.9 0-5.4-13.3-4.1-13.3-12.1 0-4.4 4-6.8 8.4-6.8 5.2 0 7.6 2.7 7.6 2.7l-1.5 2.6c0 0-2.1-2.3-6.2-2.3 -2.5 0-4.9 1.1-4.9 3.8 0 5.4 13.3 4 13.3 12.1 0 4-3.5 6.9-8.4 6.9 -6 0-9.1-3.6-9.1-3.6L103 59.1z"/></svg>
